# xmcd
#
# Track frame offsets:
#	150
#	17649
#	30950
#	45122
#	57959
#	73997
#	86859
#	101816
#	118553
#	134669
#	145913
#	160187
#
# Disc length: 2294 seconds
#
# Revision: 1
# Processed by: cddbd v1.5.2PL0 Copyright (c) Steve Scherf et al.
# Submitted via: audiograbber 1.83.01
#
DISCID=a208f40c
DTITLE=Doug Deveaux - By Request
DYEAR=2005
DGENRE=Country
TTITLE0=Make-Up and Faded Blue Jeans
TTITLE1=Memories to Burn
TTITLE2=Borrowed Angel
TTITLE3=Your Love Is a Miracle
TTITLE4=Don't Take Her (She's All I Got)
TTITLE5=The Chair
TTITLE6=Meant to Be
TTITLE7=Old Country
TTITLE8=Write This Down
TTITLE9=Lonesome 7-7203
TTITLE10=Grand Tour
TTITLE11=Pure Love
EXTD=
EXTT0=
EXTT1=
EXTT2=
EXTT3=
EXTT4=
EXTT5=
EXTT6=
EXTT7=
EXTT8=
EXTT9=
EXTT10=
EXTT11=
PLAYORDER=
